<svg width="259" height="40" viewBox="0 0 259 40" fill="none" xmlns="http://www.w3.org/2000/svg"
    role="img" aria-labelledby="british-airways-title">
    <title id="british-airways-title">British Airways Logo</title>
    <path
        d="
    M0 39.676c.566-.288.823-.981.823-1.573V23.618c0-.612-.252-1.285-.823-1.589h6.895c3.076 0 6.07 1.26 6.07 4.756 0 1.852-1.61 3.314-3.353 3.643 2.505-.026 4.925 1.508 4.925 4.28 0 3.956-4.142 4.968-7.062 4.968H0zm5.581-16.129c-.318 0-.54 0-1.131.071v6.177h.697c2.111 0 4.157-.652 4.157-3.106 0-2.434-1.637-3.142-3.723-3.142zm.44 7.837c-.505 0-.955 0-1.571.046v6.521c.763.152 1.59.197 2.354.197 1.767 0 3.566-.789 3.566-3.496 0-2.666-2.127-3.268-4.35-3.268zm15.334-7.837c-.313 0-.59.05-.904.096v6.102c.288.02.55.05.834.05 1.985 0 3.45-1.098 3.45-3.253.005-2.21-1.44-2.995-3.38-2.995zm8.885 16.23c-.677 0-1.42.026-2.066-.167-1.197-.354-2.854-3.06-3.515-4.123-1.026-1.725-1.915-4.103-4.208-4.128v6.744c0 .592.268 1.305.834 1.573H15.99c.556-.288.824-.951.824-1.573V23.618c0-.612-.268-1.285-.824-1.589h6.37c2.773 0 6.242 1.068 6.242 4.402 0 2.798-2.313 4.235-4.889 4.235 3.667.02 5.824 8.64 9.87 8.666-1.081.314-2.213.445-3.344.445zm3.616-.1c.44-.198.895-.78.895-1.574V23.618c0-.804-.46-1.371-.895-1.589h5.425c-.464.218-.889.79-.889 1.589v14.485c0 .794.425 1.37.89 1.573h-5.425zm11.764 0c.581-.269.864-.952.864-1.574V24.048H42.59c-.9 0-1.97.111-2.743.572l1.212-2.596h12.916c1.045 0 2.116-.025 3.131-.238-.49 1.331-1.955 2.313-2.798 2.313-1.026-.026-2.723-.091-4.182-.091v14.095c0 .617.303 1.305.873 1.573H45.62zm12.133 0c.434-.198.889-.78.889-1.574V23.618c0-.804-.455-1.371-.89-1.589h5.42c-.46.218-.904.79-.904 1.589v14.485c0 .794.44 1.37.904 1.573h-5.42zm15.98-3.993c0-3.359-7.904-4.118-7.904-9.486 0-3.324 3.157-4.412 5.93-4.412 1.237 0 3.03.172 4.162.694l.197 3.298c-.697-1.457-2.435-2.514-4.056-2.514-1.278 0-2.617.632-2.617 2.1 0 3.485 8.037 4.335 8.037 9.42 0 3.688-3.218 5.216-6.466 5.216-1.697 0-4.01-.329-5.44-1.31a12.748 12.748 0 01-.126-1.812c0-.718.06-1.441.172-2.155.894 2.039 2.743 3.638 5.056 3.638 1.748.005 3.056-.764 3.056-2.677zm16.932 3.992c.383-.172.793-.779.793-1.573v-6.567c-.945-.107-2.263-.152-3.738-.152-1.5 0-2.829.046-3.793.152v6.567c0 .794.399 1.37.788 1.573h-5.223c.389-.172.798-.779.798-1.573V23.618c0-.804-.414-1.396-.798-1.589h5.223c-.39.193-.788.79-.788 1.589v5.934c.964.102 2.273.152 3.793.152 1.48 0 2.793-.066 3.738-.152v-5.934c0-.804-.41-1.396-.793-1.589h5.212c-.389.193-.778.79-.778 1.589v14.485c0 .794.39 1.37.778 1.573h-5.212zM115.232 39.676c.167-.172.324-.303.324-.612 0-.106-.041-.283-.167-.612 0 0-1.445-3.946-1.616-4.402-1.086-.131-2.223-.131-3.329-.131-1.055 0-2.121.025-3.162.131a854.69 854.69 0 01-1.697 4.32c-.207.532-.283.71-.283.826 0 .263.228.39.414.48h-3.545c.525-.268.975-.814 1.202-1.356l5.829-15.066a.566.566 0 00.035-.218c0-.415-.278-.81-.647-1.002h4.572l5.929 16.276c.243.653.758 1.128 1.192 1.371h-5.051v-.005zm-4.606-14.292l-2.672 6.87c.798.086 1.621.106 2.43.106.924 0 1.838 0 2.732-.106l-2.49-6.87zm10.551 14.292c.44-.197.889-.779.889-1.573V23.618c0-.804-.454-1.371-.889-1.589h5.42c-.46.218-.889.79-.889 1.589v14.485c0 .794.429 1.37.889 1.573h-5.42zm13.658-16.129c-.293 0-.576.05-.879.096v6.102c.283.02.541.05.814.05 1.99 0 3.449-1.098 3.449-3.253.005-2.21-1.444-2.995-3.384-2.995zm9.324 16.23c-.677 0-1.404.026-2.066-.167-1.202-.354-2.853-3.06-3.51-4.123-1.02-1.725-2.349-4.128-4.627-4.128v6.744c0 .592.258 1.305.814 1.573h-5.289c.571-.288.834-.951.834-1.573V23.618c0-.612-.263-1.285-.834-1.589h6.385c2.763 0 6.227 1.068 6.227 4.402 0 2.798-2.525 4.235-4.439 4.235 3.803.217 6.091 8.666 9.864 8.666-1.086.314-2.217.445-3.359.445zm21.982-16.027l-5.354 15.926c-.444 0-.874-.152-1.121-.324-.531-.51-1.359-2.646-1.662-3.43l-2.419-6.122-3.486 9.881h-1.656l-5.991-15.962c-.257-.678-.697-1.33-1.348-1.685h5.207c-.217.172-.369.365-.369.734 0 .177.086.425.152.612l3.904 10.564 4.152-11.91 4.576 11.485 3.465-10.397c.086-.283.137-.39.137-.567 0-.217-.096-.354-.313-.526h3.449c-.641.334-1.101 1.063-1.323 1.72zm6.405 1.634l-2.672 6.87c.808.086 1.631.106 2.434.106.914 0 1.839 0 2.733-.106l-2.495-6.87zm4.596 14.292c.182-.172.318-.303.318-.612 0-.106-.05-.283-.161-.612 0 0-1.44-3.946-1.612-4.402-1.096-.131-2.227-.131-3.338-.131-1.041 0-2.112.025-3.162.131-.152.395-1.692 4.32-1.692 4.32-.223.532-.283.71-.283.826 0 .263.217.39.404.48h-3.546c.525-.268.975-.814 1.197-1.356l5.849-15.066c.015-.061.036-.132.036-.218 0-.415-.278-.81-.657-1.002h4.576l5.925 16.276c.242.653.768 1.128 1.202 1.371h-5.056v-.005zm15.921-15.795l-4.172 7.331v6.89c0 .562.232 1.306.788 1.574h-5.193c.53-.288.773-1.027.773-1.573v-6.916l-3.627-5.824c-.323-.546-1.838-3.08-3.682-3.08.5-.188 2.026-.481 3.051-.481 1.707 0 2.551.157 3.596 1.796l3.359 5.327c.283-.52 2.94-5.15 2.94-5.15.323-.562.54-.961.54-1.159 0-.253-.111-.42-.368-.592h3.742c-.737.354-1.348 1.159-1.747 1.857zm9.768 11.803c0-3.359-7.905-4.118-7.905-9.486 0-3.324 3.147-4.412 5.92-4.412 1.243 0 3.021.172 4.162.694l.197 3.298c-.702-1.457-2.439-2.514-4.056-2.514-1.283 0-2.611.632-2.611 2.1 0 3.485 8.036 4.335 8.036 9.42 0 3.688-3.197 5.216-6.465 5.216-1.697 0-4.016-.329-5.45-1.31a12.035 12.035 0 01-.137-1.812c0-.718.071-1.441.177-2.155.894 2.039 2.753 3.638 5.061 3.638 1.763.005 3.071-.764 3.071-2.677z"
        fill=" #2E5C99"></path>
    <path
        d=" M251.467 9.675c-2.96 2.95-9.38 5.479-12.537 6.668-4.313 1.624-6.228 2.195-8.642 2.985-2.732.885-8.198 2.545-8.198 2.545 11.325 3.384 19.3 4.406 19.3 4.406s3.718-1.148 9.607-4.305c3.187-1.624 4.758-2.717 5.879-3.764.414-.375 1.48-1.488 1.748-2.915.015-.106.066-.374.066-.642 0 0 0-.187-.016-.354-.005-.187-.04-.314-.04-.314s-.061-.339-.146-.577c-.086-.237-.45-.971-1.041-1.447-.394-.318-1.076-1.118-3.546-1.988-.838-.293-2.197-.562-2.197-.562l-.237.264z"
        fill=" url(#paint0_linear)"></path>
    <path
        d=" M258.69 14.572s-.016-.314-.096-.582a2.305 2.305 0 00-.324-.703 6.104 6.104 0 00-.838-.987 8.118 8.118 0 00-.99-.774c-1.546-1.012-3.541-1.583-5.304-1.826-2.732-.364-5.869-.299-6.167-.309-1.01-.015-7.526.04-9.203.071-7.44.152-16.547.172-18.931.172-24.628.111-35.346-.42-47.277-2.813-10.147-2.019-15.779-3.936-15.779-3.936 8.951-.309 61.188-2.48 70.719-2.737 6.238-.177 10.667-.213 14.213-.01 1.818.1 3.51.258 5.632.617 1.904.329 3.637.88 4.642 1.255 2.121.789 3.909 1.927 4.793 3.09 0 0 .263.27.616.745.399.551.859 1.234 1.015 1.487 1.294 1.958 1.905 3.192 2.117 3.622.232.45.434.921.631 1.377.192.455.273.728.339.92.136.481.171.921.176 1.017l.016.304z"
        fill=" #CE210F"></path>
    <defs>
        <linearGradient id=" paint0_linear" x1=" 247.692" y1=" 6.093" x2=" 234.438" y2=" 29.012"
            gradientUnits=" userSpaceOnUse">
            <stop stop-color=" #E9EAF6"></stop>
            <stop offset=" .07" stop-color=" #C7CBE8"></stop>
            <stop offset=" .181" stop-color=" #96A0D1"></stop>
            <stop offset=" .277" stop-color=" #7183C0"></stop>
            <stop offset=" .353" stop-color=" #5972B6"></stop>
            <stop offset=" .4" stop-color=" #506CB3"></stop>
            <stop offset=" .9" stop-color=" #2E5C99"></stop>
        </linearGradient>
    </defs>
</svg>