<svg xmlns="http://www.w3.org/2000/svg" width="121" height="40" fill="none">
    <path fill="#004D9F"
        d="M119.33 14.44c-.21.373-.503.663-.882.87a2.428 2.428 0 01-1.185.312c-.412 0-.807-.103-1.185-.311a2.226 2.226 0 01-.885-.87 2.345 2.345 0 01-.317-1.168c0-.409.108-.802.323-1.179.215-.377.512-.667.891-.87a2.46 2.46 0 011.173-.304c.398 0 .788.101 1.17.304.381.203.678.493.892.87.213.377.32.77.32 1.18 0 .405-.105.794-.315 1.166zm.405-2.581a2.6 2.6 0 00-1.067-1.042 2.96 2.96 0 00-1.405-.365c-.48 0-.949.122-1.405.365-.457.242-.814.59-1.07 1.042a2.832 2.832 0 00-.384 1.414c0 .485.126.952.378 1.4.253.449.605.797 1.059 1.045a2.92 2.92 0 001.422.371c.494 0 .968-.123 1.422-.371a2.635 2.635 0 001.056-1.044 2.83 2.83 0 00.377-1.4 2.84 2.84 0 00-.383-1.415zm-2.628 1.264h-.602v-.915h.565c.242 0 .408.018.497.053.091.034.16.087.211.158a.404.404 0 01.076.241.41.41 0 01-.158.336c-.105.085-.301.127-.589.127zm.656.512a.866.866 0 00-.261-.16.954.954 0 00.637-.277.804.804 0 00.24-.579.77.77 0 00-.143-.445.757.757 0 00-.386-.293c-.162-.056-.423-.084-.784-.084h-1.057v3.034h.496v-1.29h.292c.174 0 .307.035.397.105.132.095.305.33.519.706l.273.479h.606l-.375-.594c-.179-.282-.33-.482-.454-.602zm-9.025 2.96v-2.18h-4.05v15.57h4.391v-7.469c0-1.435.139-2.4.416-2.893.277-.493.771-.74 1.48-.74.182 0 .384.013.607.04.222.027.457.068.702.121v-4.939c-.727.072-1.38.31-1.957.713-.578.404-1.107.996-1.589 1.777zm-9.936-3.728h4.378V9.1h-4.378v3.768zm0 17.118h4.378v-15.57h-4.378v15.57zm-6.118-5.76c0 1.014-.146 1.736-.436 2.167-.291.43-.76.646-1.405.646-.436 0-.784-.148-1.044-.444-.258-.296-.388-.69-.388-1.184 0-.7.261-1.283.784-1.75.523-.466 1.352-.856 2.489-1.17v1.735zm4.61 1.4v-6.002c0-1.543-.126-2.606-.376-3.19-.25-.583-.683-1.08-1.302-1.493-.482-.314-1.08-.554-1.793-.72-.714-.166-1.526-.25-2.434-.25-2.019 0-3.524.43-4.515 1.286-.99.857-1.486 2.165-1.486 3.923h4.419v-.108c0-.664.13-1.155.388-1.473.26-.319.657-.478 1.194-.478.445 0 .786.119 1.022.356.237.238.355.586.355 1.043 0 .745-.823 1.413-2.468 2.006-.573.206-1.028.372-1.364.497-1.4.557-2.407 1.216-3.02 1.979-.615.762-.921 1.731-.921 2.906 0 1.346.36 2.414 1.084 3.203.722.79 1.702 1.185 2.939 1.185.772 0 1.488-.147 2.147-.438a5.777 5.777 0 001.821-1.299l.259 1.427h4.61c-.2-.404-.344-.926-.43-1.568-.086-.641-.13-1.572-.13-2.792zm-39.049.135c-.214.645-.607.969-1.18.969-.527 0-.898-.25-1.111-.748-.214-.497-.32-1.406-.32-2.725 0-2.565.11-4.149.334-4.75.222-.601.625-.902 1.206-.902.51 0 .868.26 1.078.78.21.521.313 1.486.313 2.894 0 2.342-.107 3.835-.32 4.482zm3.648-10.47a3.352 3.352 0 00-1.268-.915 4.299 4.299 0 00-1.691-.323c-.746 0-1.42.18-2.026.538-.604.359-1.11.888-1.52 1.587v-1.762h-4.05V35.22h4.377v-6.608c.41.61.868 1.066 1.377 1.366.51.301 1.096.451 1.76.451 1.546 0 2.616-.552 3.212-1.655.595-1.104.893-3.427.893-6.971 0-2.234-.08-3.757-.239-4.569-.16-.812-.434-1.46-.825-1.944zm-16.782 8.935c0 1.014-.146 1.736-.437 2.167-.29.43-.759.646-1.405.646-.436 0-.784-.148-1.042-.444-.26-.296-.39-.69-.39-1.184 0-.7.262-1.283.785-1.75.522-.466 1.352-.856 2.489-1.17v1.735zm4.61 1.4v-6.002c0-1.543-.126-2.606-.376-3.19-.25-.583-.684-1.08-1.302-1.493-.482-.314-1.08-.554-1.794-.72-.714-.166-1.525-.25-2.434-.25-2.018 0-3.523.43-4.514 1.286-.99.857-1.487 2.165-1.487 3.923h4.42v-.108c0-.664.129-1.155.388-1.473.259-.319.657-.478 1.193-.478.445 0 .786.119 1.023.356.236.238.354.586.354 1.043 0 .745-.822 1.413-2.468 2.006-.573.206-1.027.372-1.364.497-1.4.557-2.407 1.216-3.02 1.979-.614.762-.92 1.731-.92 2.906 0 1.346.36 2.414 1.083 3.203.723.79 1.703 1.185 2.94 1.185.772 0 1.488-.147 2.147-.438a5.78 5.78 0 001.82-1.299l.26 1.427h4.61c-.2-.404-.344-.926-.43-1.568-.087-.641-.13-1.572-.13-2.792zm-17.042-5.612v.08h-2.96a5.527 5.527 0 01-.02-.335 14.288 14.288 0 01-.007-.525c0-.817.116-1.402.348-1.757.232-.354.616-.531 1.152-.531.527 0 .916.182 1.166.545.25.363.375.926.375 1.689 0 .161-.018.44-.054.834zm2.986-4.28c-.473-.573-1.086-1.006-1.84-1.298-.756-.292-1.651-.437-2.688-.437-1.018 0-1.911.134-2.68.404-.768.268-1.402.668-1.902 1.197-.518.566-.884 1.283-1.097 2.153-.214.87-.321 2.405-.321 4.603 0 1.991.104 3.44.314 4.347.209.906.559 1.632 1.05 2.18.436.475 1.045.847 1.827 1.117.782.268 1.655.403 2.619.403 1.909 0 3.345-.46 4.309-1.379.964-.92 1.446-2.29 1.446-4.111v-.39H32.57c0 .036.004.08.013.134.027.278.041.485.041.619 0 .664-.128 1.16-.382 1.487-.254.328-.632.491-1.132.491-.573 0-.977-.213-1.213-.639-.237-.426-.355-1.187-.355-2.281 0-.26.018-.718.054-1.373 0-.072.005-.13.014-.175h7.173v-1.87c0-1.624-.086-2.773-.259-3.445a4.407 4.407 0 00-.859-1.736zM20.67 14.106c-.818 0-1.52.164-2.107.491-.586.328-1.066.82-1.439 1.474V9.26h-4.391v20.725h4.391v-9.73c0-.843.139-1.5.416-1.971.277-.471.662-.707 1.153-.707.418 0 .71.153.873.458.163.305.245 1.081.245 2.328v9.622h4.378v-10.86c0-1.74-.282-3.012-.846-3.815-.564-.803-1.455-1.205-2.673-1.205zm-9.159 9.757H7.173c0 .09.005.215.014.377.009.161.014.278.014.35 0 .906-.107 1.568-.32 1.985-.215.417-.553.625-1.017.625-.536 0-.902-.293-1.098-.88-.195-.589-.293-1.96-.293-4.112 0-2.243.098-3.63.293-4.159.196-.53.57-.794 1.125-.794.482 0 .826.198 1.03.592.205.395.307 1.06.307 1.992v.444h4.255v-.269c0-2.063-.455-3.582-1.364-4.555-.909-.974-2.328-1.46-4.255-1.46-2.146 0-3.66.605-4.541 1.816C.44 17.026 0 19.157 0 22.207s.438 5.179 1.316 6.385c.877 1.207 2.393 1.81 4.548 1.81 1.91 0 3.332-.49 4.269-1.473.936-.982 1.404-2.47 1.404-4.461 0-.063-.005-.16-.013-.29a4.855 4.855 0 01-.014-.316z" />
    <path fill="#FF4600"
        d="M73.647 19.761l-.003 1.779c-.001.973-.018 1.95-.105 2.92a8.45 8.45 0 01-.19 1.255c-.095.391-.265.759-.592 1.014a.502.502 0 01-.016.012c-.03.016-.056.04-.084.058-.06.039-.123.072-.187.1l-.002.002a1.618 1.618 0 01-.202.073 2.182 2.182 0 01-.697.075 2.112 2.112 0 01-.922-.229 1.518 1.518 0 01-.31-.231 1.613 1.613 0 01-.341-.469 2.188 2.188 0 01-.165-.45 4.915 4.915 0 01-.057-.257c-.013-.068-.028-.135-.04-.204a8.552 8.552 0 01-.091-.759c-.008-.074-.011-.15-.017-.224-.017-.215-.031-.43-.041-.646l-.007-.135c-.01-.234-.017-.468-.022-.702l-.001-.069a65.445 65.445 0 01-.008-1.276 383.335 383.335 0 01.003-1.493 632.263 632.263 0 00.004-1.426v-.41l.001-.206c.002-.675.008-1.351.036-2.026.005-.132.013-.263.02-.394l.015-.25c.009-.131.02-.263.032-.395.013-.15.025-.302.043-.452a9.484 9.484 0 01.128-.773 3.308 3.308 0 01.18-.535 2.24 2.24 0 01.324-.466 1.52 1.52 0 01.204-.176c.321-.23.711-.33 1.102-.353a2.75 2.75 0 01.158-.005c.348 0 .698.07.983.277.325.233.492.588.584.965.101.415.15.841.187 1.265.038.432.06.865.075 1.298.02.559.024 1.117.023 1.676l-.002 2.242zm5.508-.887v-.05a100.314 100.314 0 00-.02-1.474c-.01-.384-.02-.768-.035-1.153a31.196 31.196 0 00-.198-2.64c-.106-.85-.285-1.703-.613-2.501a5.342 5.342 0 00-1.551-2.076l-.007-.005a2.64 2.64 0 00-.033-.027l-.033-.023a4.734 4.734 0 00-.348-.25 4.931 4.931 0 00-.465-.27c-.015-.01-.03-.016-.045-.024a5.633 5.633 0 00-1.366-.472 7.435 7.435 0 00-1.528-.15 10.416 10.416 0 00-1.118.062l-.018.002c-.185.02-.37.046-.555.075-.073.011-.145.025-.217.037-.121.022-.242.046-.361.072-.08.017-.159.033-.237.053a8.92 8.92 0 00-.504.137c-.086.026-.169.056-.253.085a7.68 7.68 0 00-.284.101c-.05.02-.102.035-.153.055-.047.02-.092.042-.138.063-.06.025-.117.052-.175.079a6.879 6.879 0 00-.933.517 6.188 6.188 0 00-2.297 2.846c-.314.798-.472 1.654-.575 2.5-.105.87-.146 1.747-.178 2.621a81.342 81.342 0 00-.019 5.348c.026.864.062 1.733.163 2.593.1.847.26 1.695.574 2.494.637 1.57 1.989 2.79 3.598 3.345.837.293 1.722.437 2.606.485.194.01.387.016.582.016.673 0 1.348-.068 2-.238a5.75 5.75 0 002.328-1.2 5.687 5.687 0 001.51-2.07c.027-.064.049-.13.074-.195l.064-.168c.023-.066.048-.13.069-.196.034-.103.066-.207.097-.311.003-.014.005-.027.01-.04a9.6 9.6 0 00.128-.512l.011-.046a11.878 11.878 0 00.182-1.047 19.165 19.165 0 00.1-.932l.005-.058c.025-.295.047-.59.064-.886a78.568 78.568 0 00.093-4.387l-.001-.185z" />
    <path fill="#B33100"
        d="M83.541 15.693c-.066-.835-.157-1.668-.365-2.481-.192-.75-.5-1.453-.98-2.067a4.685 4.685 0 00-.743-.757 4.04 4.04 0 00-.65-.43l-.114-.06c-.03-.014-.079-.027-.104-.049-.088-.029-.176-.08-.26-.12l-.33-.153-.635-.292V3.079c0-.532-.367-.992-.91-1.068-.247-.035-.507.024-.751.06l-2.554.362-.772.11c-.546.078-.946.464-1.13.979-.096.272-.077.558-.077.842v2.909c0-.005.5.025.554.029.137.01.23.023.366.039V4.196c0-.203-.024-.587.265-.628a4307.71 4307.71 0 013.212-.457l.406-.057c.065-.01.147-.032.212-.017.196.044.143.349.143.495v5.274l-.867-.401-.434-.2c-.06-.028-.127-.07-.193-.09a4.582 4.582 0 011.415 1.026l.079.095c.024.037.049.07.073.097a5.416 5.416 0 01.301.364c.516.69.81 1.506.999 2.337.383 1.682.397 3.429.452 5.144.028.888.028 1.779.025 2.668-.002.887-.01 1.775-.04 2.662-.028.86-.07 1.72-.165 2.574-.091.825-.228 1.67-.511 2.454a6.081 6.081 0 01-1.309 2.181 5.212 5.212 0 01-2.184 1.383 6.194 6.194 0 01-1.026.236c.932-.134 3.728-.527 4.19-.61.22-.04.438-.092.651-.157.102-.031.202-.067.3-.105l.075-.028s1.055-.29 1.814-1.111c.758-.822 1.055-1.953 1.055-1.953.036.008.11-.304.119-.335l.03-.103c.107-.38.184-.765.247-1.153.13-.781.177-1.577.21-2.367.034-.842.048-1.685.05-2.528.006-1.73-.013-3.466-.139-5.193z" />
    <path fill="#8F2600"
        d="M80.504 28.696c0-1.157.69-2.094 1.54-2.094h-1.045c-.85 0-1.46.937-1.46 2.094 0 1.157.61 2.094 1.46 2.094h.955c-.808-.063-1.45-.98-1.45-2.094z" />
    <path fill="#FF4600"
        d="M83.48 28.696c0 1.157-.67 2.094-1.498 2.094-.827 0-1.498-.937-1.498-2.094 0-1.157.671-2.094 1.499-2.094.826 0 1.497.937 1.497 2.094z" />
</svg>