<?xml version="1.0" encoding="utf-8"?>
<!-- Generator: Adobe Illustrator 23.0.2, SVG Export Plug-In . SVG Version: 6.00 Build 0)  -->
<svg version="1.1" id="horizontal" xmlns="http://www.w3.org/2000/svg" xmlns:xlink="http://www.w3.org/1999/xlink" x="0px" y="0px"
	 width="125px" height="24px" viewBox="0 0 125 24" style="enable-background:new 0 0 125 24;" xml:space="preserve">
<style type="text/css">
	.st0{fill:#FF690D;}
	.st1{fill:#FFFFFF;}
</style>
<g id="text">
	<rect x="25.3" class="st0" width="23.9" height="23.9"/>
	<rect x="50.5" class="st0" width="23.9" height="23.9"/>
	<rect x="75.8" class="st0" width="23.9" height="23.9"/>
	<rect x="101.1" class="st0" width="23.9" height="23.9"/>
	<path class="st1" d="M35.1,16.3L34.5,18h-3.1l3.9-12H39l4,12h-3.2l-0.5-1.7H35.1z M37.2,9.4l-1.4,4.5h2.8L37.2,9.4z"/>
	<path class="st1" d="M85.6,16.3L85.1,18H82l3.9-12h3.7l3.9,12h-3.2l-0.5-1.7H85.6z M87.7,9.4l-1.4,4.5h2.8L87.7,9.4z"/>
	<path class="st1" d="M64,18h-2.9v-5.3l-4-6.7h3.5l1.9,3.7L64.4,6h3.4L64,12.7V18z"/>
	<rect x="108.4" y="6" class="st1" width="2.9" height="12"/>
	<polygon class="st1" points="117.6,18 114.4,18 111.1,12 114.4,6 117.6,6 114.3,12 	"/>
</g>
<g id="vertical">
	<rect class="st0" width="23.9" height="23.9"/>
	<rect x="7.4" y="6" class="st1" width="2.9" height="12"/>
	<polygon class="st1" points="16.6,18 13.4,18 10,12 13.4,6 16.6,6 13.2,12 	"/>
</g>
</svg>
