<svg xmlns="http://www.w3.org/2000/svg" viewBox="0 0 213.9 64" xmlns:v="https://vecta.io/nano"><path d="M14.2 52.3s-2-8.6-5.8-14.2C5.1 33.2.6 30.9 0 30.7l9.5-4.6s2.9.9 5.6 4.7c2.8 4 3.5 7.3 3.5 7.3l5.8-7.6c.9-1.1 5-6.5 8.4-9.2s10.7-7.9 11.8-8.7c0 0-1.5-.9-3.9-1.9-2.4-.9-2-.9-2-.9l3.9 1.1 2.4.8 1-.5V8.6s-14.8-5.5-15.4-6l15.6 2.7.2-1.9 3 2.8s1.1-.1 1.3-.2l1.4-.7.9.7s1.1.3 1.4.2c.2 0 13.2-6 13.5-6s1.6.7 2.2 1.5c.5.8.8 1.6.4 1.9-.3.3-6.6 5.4-6.6 5.4s1.1 1.3 1.5 1.3c.4.1 3.7-.1 3.7-.1l.2 1.3s3.3 2.2 3.9 2.5c0 0-.2.4-1.7-.1-1.5-.4-2.5-.8-2.5-.8l-1 .9-5.6-2.5-2.3.7s-1.2-.4-2.5-.4-5.1.8-7.6 2.4c-2.6 1.6-6.8 4.9-8.7 6.7-2 1.8-7.1 6.5-10.1 10.6L24.1 41s-1.7 2.3-2.1 3.2c-.3.9-.4 1.4-1.5 3.1s-2.8 4.1-4.1 4.8l-1.1.4-1.1-.2z" fill="#fd8813"/><path d="M42.3 36.5s-.5 4.1 1.4 6.5c1.8 2.2 3.2 2.8 8.7 2.4s7.9-3.5 8.9-7.2c.9-3.7-.1-6-.9-6.9s-2.6-2-6.7-3.2c0 0-3-.4-3-2s2-2.1 3-2c.9.1 2.1.6 2.3 2.4l.1.8 6.3-.4s.3-3.3-1-5-3.3-2.6-6.7-2.6-6.4 1.4-7.3 2.3-2.2 2.3-2.7 4.6c-.4 1.6-.3 4.1 1.5 5.8 1.6 1.5 2.9 2 6.3 3 3.3 1 2.7 2.8 2.7 2.8s-.4 2.4-3 2.6c-2.7.1-3-1.5-3.3-4.2l-6.6.3zm22.8-9.9l-3.6 18.3h5.8L70 31.1s.8-1 1.8-.9 1.2 1.3 1.1 2.1-2.4 12.6-2.4 12.6h6.7L80 31.2s.4-1 1.8-1c1.5.1 1.2 1.8 1.2 1.8l-2.5 13h6.3l2.8-13.8s.3-2.1-.9-3.4c-1.1-1.3-2.4-1.6-3.8-1.6s-4 .9-5.6 3.2c0 0-.6-3.2-3.9-3.2-3.5 0-5.2 2.3-5.2 2.3h-.4l.2-1.8-4.9-.1zM97 32.3l-5.4-.3s.6-2.7 2.6-4.4 5-1.9 5.4-1.9 3.4-.1 4.9.9 2.5 2.5 2.3 4.7c0 0-.6 5-1.8 8l-.5 3.1c-.1.7.2 2 .3 2.2l-.5.7h-4.7s-.4-.8-.3-1.4c0 0-2.1 2-4.8 1.9s-4.4-1.9-4.8-3.6-.3-4.9 1.3-6.5c1.5-1.6 3.5-2 6.5-2.3s3.6-.2 3.8-1.3c.2-1 .1-2.1-1.7-2-1.8.2-2.5 1.7-2.6 2.2zm1.3 8.2c1.3-.9 1.8-3.5 1.8-3.5s-.9.1-3.2.6-2.2 2.1-2.2 2.1c.5 2.3 2.3 1.6 3.6.8z" fill="#1e5e8c"/><path d="M153 33.2l-5.4-.3s.6-2.7 2.6-4.4 5-1.9 5.4-1.9 3.4-.1 4.9.9 2.5 2.5 2.3 4.7c0 0-.6 5-1.8 8l-.5 3.1c-.1.7.2 2 .3 2.2l-.5.7h-4.7s-.4-.8-.3-1.4c0 0-2.1 2-4.8 1.9s-4.4-1.9-4.8-3.6-.3-4.9 1.3-6.5c1.5-1.6 3.5-2 6.5-2.3s3.6-.2 3.8-1.3c.2-1 .1-2.1-1.7-2-1.8.2-2.5 1.8-2.6 2.2zm1.3 8.2c1.3-.9 1.8-3.5 1.8-3.5s-.9.1-3.2.6-2.2 2.1-2.2 2.1c.5 2.4 2.3 1.7 3.6.8zm11.6-14.3l-3.6 18.7.5.6h4.9l2-9.7c.5-1.8 1.6-4.1 4.2-4.7 0 0 1.3-.2 1.8.3l2.1-4.8s-1.3-.9-2.8-.8c-1.5 0-2.9 1-4.2 2.3l.3-1.2-.5-.6-4.7-.1z" fill="#fd8813"/><g fill="#1e5e8c"><path d="M109.9 26.1l-3.6 18.7.5.6h4.9l2-9.7c.5-1.8 1.6-4.1 4.2-4.7 0 0 1.3-.2 1.8.3l2.1-4.8s-1.3-.9-2.8-.8c-1.5 0-2.9 1-4.2 2.3l.3-1.2-.5-.7h-4.7z"/><path d="M123.7 20.7h5.4l-1.1 5.4h2.4l.3.6-.8 4h-2.7l-1.9 9.6s-.1.6.6.7 1.9 0 1.9 0l.6.5-.8 3.9s-.4.5-3.2.4-3.6-1.1-4.1-1.9-.7-2.1-.5-3.3c.2-1.1 2-10 2-10l-2-.1.9-4.6h1.9l1.1-5.2z"/></g><path d="M133.1 20.7l-4.4 25.2h6.5l1.9-10.3h8.1l1-5.1-8.3-.1.9-4.3h9.5l1-5.4z" fill="#fd8813"/><path d="M185.9 26.6s2.7.2 3.9 1.7c1.2 1.6 1.6 3.4 1.4 5.2s-.7 4.8-1.1 5.2H180s-.1 1.5.1 2.2c.2.6.8 1.6 1.9 1.5s2.3-.7 3.2-2.6h4.6s-1 3.3-3.1 4.8-3.1 2.2-5.5 2.1c-2.3-.1-4-.9-5.2-3.1 0 0-.9-1.1-.8-4.3 0-3.2 1.6-6.8 2.4-7.8s3.1-4.7 8.3-4.9zm.5 5.6c-.3-1.2-1.9-1.2-1.9-1.2-2.1.2-3.4 3.7-3.4 3.7h5.5c0 .1.1-1.2-.2-2.5z" fill="#f68820"/><path d="M190.2 39.9h4.3s.6 2.1 1.8 2.3c1.3.3 2.7.6 3.4-1 0 0 .5-1.2-.9-1.5 0 0-4.5-1.8-5.3-2.7-.9-.9-1.5-2.5-1.5-4.2s1.1-3.8 2.8-5c1.7-1.1 5-1.1 5-1.1s3.8.3 4.8 2.3c1 1.7 1.3 3 1.4 4l-4.7.3s-.6-2.1-2-2.2c-1.4 0-2.4-.1-2.7 1-.3 1 .7 1.3 1.4 1.6s4.9 1.6 6 3.6.8 3.8.5 4.7c-.2.9-1 3.6-4.5 4.7-2.6.8-6.7.2-8.4-1.8-1.6-2.1-1.4-5-1.4-5z" fill="#fd8813"/></svg>